<svg xmlns="http://www.w3.org/2000/svg" viewBox="0 0 64 64" width="64" height="64">
  <rect width="64" height="64" rx="12" ry="12" fill="#b23a2e"></rect>
  <path d="M32.00 30.00 L32.09 29.94 L32.18 29.89 L32.28 29.85 L32.38 29.80 L32.48 29.76 L32.59 29.73 L32.70 29.70 L32.82 29.68 L32.94 29.66 L33.06 29.65 L33.18 29.65 L33.31 29.65 L33.44 29.66 L33.57 29.68 L33.70 29.70 L33.83 29.73 L33.97 29.76 L34.10 29.81 L34.23 29.86 L34.36 29.92 L34.49 29.98 L34.62 30.06 L34.75 30.14 L34.88 30.22 L35.00 30.32 L35.12 30.42 L35.24 30.53 L35.35 30.65 L35.46 30.77 L35.56 30.90 L35.66 31.04 L35.75 31.19 L35.84 31.34 L35.92 31.49 L36.00 31.65 L36.07 31.82 L36.13 31.99 L36.18 32.17 L36.23 32.35 L36.27 32.54 L36.30 32.73 L36.32 32.92 L36.33 33.12 L36.33 33.32 L36.33 33.52 L36.31 33.72 L36.29 33.93 L36.25 34.13 L36.21 34.34 L36.16 34.55 L36.09 34.75 L36.02 34.96 L35.93 35.16 L35.84 35.36 L35.74 35.56 L35.62 35.76 L35.50 35.95 L35.36 36.14 L35.22 36.33 L35.06 36.51 L34.90 36.68 L34.73 36.85 L34.54 37.01 L34.35 37.17 L34.15 37.32 L33.95 37.46 L33.73 37.59 L33.51 37.71 L33.27 37.83 L33.04 37.94 L32.79 38.03 L32.54 38.12 L32.28 38.19 L32.02 38.25 L31.75 38.31 L31.48 38.35 L31.20 38.38 L30.93 38.40 L30.64 38.40 L30.36 38.39 L30.07 38.37 L29.79 38.34 L29.50 38.29 L29.21 38.23 L28.92 38.16 L28.64 38.08 L28.35 37.98 L28.07 37.86 L27.79 37.74 L27.51 37.60 L27.24 37.45 L26.98 37.28 L26.72 37.10 L26.46 36.91 L26.21 36.71 L25.97 36.50 L25.74 36.27 L25.52 36.03 L25.30 35.78 L25.09 35.52 L24.90 35.25 L24.71 34.96 L24.54 34.67 L24.38 34.37 L24.23 34.06 L24.09 33.74 L23.97 33.41 L23.86 33.08 L23.77 32.74 L23.68 32.39 L23.62 32.04 L23.57 31.68 L23.53 31.32 L23.51 30.95 L23.50 30.59 L23.52 30.22 L23.54 29.84 L23.59 29.47 L23.65 29.10 L23.72 28.72 L23.82 28.35 L23.93 27.98 L24.06 27.62 L24.20 27.25 L24.36 26.90 L24.54 26.54 L24.73 26.20 L24.94 25.85 L25.17 25.52 L25.41 25.20 L25.66 24.88 L25.93 24.57 L26.22 24.28 L26.52 23.99 L26.83 23.72 L27.16 23.45 L27.50 23.21 L27.85 22.97 L28.22 22.75 L28.60 22.54 L28.98 22.35 L29.38 22.18 L29.79 22.02 L30.20 21.88 L30.62 21.75 L31.05 21.65 L31.49 21.56 L31.93 21.49 L32.38 21.44 L32.83 21.41 L33.29 21.40 L33.75 21.40 L34.21 21.43 L34.67 21.48 L35.13 21.55 L35.59 21.63 L36.04 21.74 L36.50 21.87 L36.95 22.02 L37.40 22.19 L37.84 22.37 L38.27 22.58 L38.70 22.81 L39.12 23.06 L39.53 23.32 L39.93 23.61 L40.32 23.91 L40.70 24.23 L41.06 24.57 L41.42 24.93 L41.75 25.30 L42.08 25.69 L42.39 26.10 L42.68 26.52 L42.95 26.95 L43.21 27.40 L43.45 27.86 L43.67 28.33 L43.87 28.81 L44.05 29.31 L44.21 29.81 L44.35 30.32 L44.47 30.84 L44.56 31.37 L44.64 31.90 L44.69 32.44 L44.71 32.98 L44.72 33.53 L44.70 34.07 L44.66 34.62 L44.59 35.17 L44.50 35.72 L44.38 36.26 L44.25 36.80 L44.08 37.34 L43.90 37.88 L43.69 38.40 L43.46 38.92 L43.20 39.43 L42.92 39.94 L42.62 40.43 L42.30 40.91 L41.95 41.38 L41.59 41.83 L41.20 42.27 L40.79 42.70 L40.36 43.10 L39.92 43.50 L39.46 43.87 L38.97 44.23 L38.48 44.56 L37.96 44.88 L37.43 45.17 L36.89 45.44 L36.33 45.69 L35.76 45.92 L35.18 46.12 L34.59 46.30 L33.99 46.46 L33.38 46.58 L32.76 46.69 L32.14 46.76 L31.51 46.81 L30.88 46.84 L30.24 46.83 L29.61 46.80 L28.97 46.74 L28.33 46.66 L27.70 46.55 L27.07 46.40 L26.44 46.24 L25.82 46.04 L25.20 45.82 L24.60 45.57 L24.00 45.29 L23.41 44.99 L22.83 44.66 L22.27 44.30 L21.72 43.92 L21.18 43.52 L20.66 43.09 L20.16 42.64 L19.68 42.16 L19.21 41.66 L18.77 41.15 L18.34 40.61 L17.94 40.05 L17.56 39.47 L17.20 38.88 L16.87 38.27 L16.57 37.64 L16.29 37.00 L16.03 36.34 L15.81 35.67 L15.61 34.99 L15.44 34.30 L15.30 33.61 L15.19 32.90 L15.11 32.19 L15.06 31.47 L15.04 30.75 L15.05 30.02 L15.09 29.29 L15.17 28.57 L15.27 27.84 L15.41 27.12 L15.57 26.41 L15.77 25.69 L16.00 24.99 L16.26 24.29 L16.55 23.60 L16.87 22.93 L17.22 22.26 L17.60 21.61 L18.01 20.97 L18.45 20.35 L18.91 19.75 L19.40 19.16 L19.92 18.60 L20.46 18.05 L21.03 17.53 L21.62 17.03 L22.23 16.56 L22.87 16.11 L23.52 15.68 L24.20 15.29 L24.89 14.92 L25.60 14.58 L26.33 14.27 L27.07 13.99 L27.83 13.74 L28.60 13.52 L29.37 13.34 L30.16 13.18 L30.96 13.07 L31.76 12.98 L32.57 12.93 L33.38 12.91 L34.20 12.93 L35.01 12.99 L35.83 13.08 L36.64 13.20 L37.45 13.36 L38.25 13.55 L39.05 13.78 L39.84 14.04 L40.62 14.34 L41.39 14.67 L42.14 15.03 L42.88 15.43 L43.61 15.86 L44.32 16.32 L45.01 16.81 L45.68 17.34 L46.33 17.89 L46.96 18.47 L47.57 19.08 L48.14 19.72 L48.70 20.38 L49.22 21.07 L49.72 21.78 L50.19 22.51 L50.63 23.27 L51.03 24.05 L51.41 24.84 L51.75 25.65 L52.06 26.48 L52.33 27.32 L52.57 28.18 L52.77 29.04 L52.93 29.92 L53.06 30.81 L53.15 31.70 L53.20 32.60 L53.21 33.50 L53.18 34.41 L53.12 35.31 L53.02 36.21 L52.87 37.12 L52.69 38.01 L52.48 38.90 L52.22 39.79 L51.92 40.66 L51.59 41.52 L51.22 42.37 L50.81 43.20 L50.37 44.02 L49.89 44.83 L49.37 45.61 L48.82 46.37 L48.24 47.11 L47.63 47.82 L46.98 48.52 L46.30 49.18 L45.60 49.82 L44.86 50.42 L44.10 51.00 L43.31 51.55 L42.50 52.06 L41.67 52.54 L40.81 52.98 L39.93 53.39 L39.03 53.76 L38.12 54.10 L37.19 54.39 L36.25 54.65 L35.29 54.87 L34.32 55.04 L33.35 55.18 L32.37 55.27 L31.38 55.32 L30.38 55.33 L29.39 55.30 L28.40 55.23 L27.40 55.11 L26.41 54.95 L25.43 54.75 L24.45 54.50 L23.49 54.22 L22.53 53.89 L21.58 53.52 L20.65 53.11 L19.74 52.66 L18.84 52.17 L17.97 51.64 L17.11 51.07 L16.28 50.47 L15.47 49.83 L14.69 49.15 L13.93 48.44 L13.21 47.69 L12.52 46.92 L11.85 46.11 L11.22 45.28 L10.63 44.41 L10.07 43.52 L9.55 42.61 L9.07 41.67 L8.63 40.71 L8.22 39.73" fill="none" stroke="#f3efe6" stroke-width="4.5" stroke-linecap="round" stroke-linejoin="round"></path>
</svg>